<svg id="visual" viewBox="0 0 900 600" width="900" height="600" xmlns="http://www.w3.org/2000/svg" xmlns:xlink="http://www.w3.org/1999/xlink" version="1.1"><rect x="0" y="0" width="900" height="600" fill="#ffffff"></rect><path d="M0 431L21.5 440.3C43 449.7 86 468.3 128.8 468.2C171.7 468 214.3 449 257.2 444.7C300 440.3 343 450.7 385.8 447.2C428.7 443.7 471.3 426.3 514.2 419.7C557 413 600 417 642.8 430C685.7 443 728.3 465 771.2 472C814 479 857 471 878.5 467L900 463L900 601L878.5 601C857 601 814 601 771.2 601C728.3 601 685.7 601 642.8 601C600 601 557 601 514.2 601C471.3 601 428.7 601 385.8 601C343 601 300 601 257.2 601C214.3 601 171.7 601 128.8 601C86 601 43 601 21.5 601L0 601Z" fill="#0066FF" stroke-linecap="round" stroke-linejoin="miter"></path></svg>